<svg width="64" height="64" viewBox="0 0 64 64" fill="none" xmlns="http://www.w3.org/2000/svg">
  <!-- Train body (central) -->
  <rect x="18" y="28" width="28" height="14" rx="2" fill="#3b82f6"/>
  
  <!-- Train windows -->
  <rect x="21" y="31" width="5" height="5" rx="0.5" fill="#1e40af"/>
  <rect x="28" y="31" width="5" height="5" rx="0.5" fill="#1e40af"/>
  <rect x="35" y="31" width="5" height="5" rx="0.5" fill="#1e40af"/>
  
  <!-- Train front -->
  <path d="M46 28 L52 22 L52 42 L46 42 Z" fill="#2563eb"/>
  
  <!-- Train wheels -->
  <circle cx="24" cy="42" r="3" fill="#1e3a8a"/>
  <circle cx="24" cy="42" r="1.5" fill="#3b82f6"/>
  <circle cx="40" cy="42" r="3" fill="#1e3a8a"/>
  <circle cx="40" cy="42" r="1.5" fill="#3b82f6"/>
  
  <!-- Person 1 (left side) -->
  <circle cx="10" cy="34" r="3.5" fill="#3b82f6"/>
  <!-- Body -->
  <path d="M8 38 Q8 38, 10 42 Q12 38, 12 38" fill="#2563eb"/>
  <!-- Arms reaching toward train -->
  <line x1="12" y1="36" x2="18" y2="34" stroke="#3b82f6" stroke-width="2.5" stroke-linecap="round"/>
  
  <!-- Person 2 (right side) -->
  <circle cx="54" cy="34" r="3.5" fill="#3b82f6"/>
  <!-- Body -->
  <path d="M52 38 Q52 38, 54 42 Q56 38, 56 38" fill="#2563eb"/>
  <!-- Arms reaching toward train -->
  <line x1="52" y1="36" x2="46" y2="34" stroke="#3b82f6" stroke-width="2.5" stroke-linecap="round"/>
  
  <!-- Connection path (curved line showing connection) -->
  <path d="M14 34 Q32 28, 50 34" stroke="#60a5fa" stroke-width="2.5" fill="none" stroke-linecap="round"/>
  
  <!-- Meeting/handshake indicator (circles at connection points) -->
  <circle cx="18" cy="34" r="2" fill="#60a5fa" opacity="0.8"/>
  <circle cx="46" cy="34" r="2" fill="#60a5fa" opacity="0.8"/>
  
  <!-- Friendship/heart symbol above train -->
  <path d="M32 16 C32 16, 27 12, 27 9.5 C27 7.5, 29.5 7.5, 32 10 C34.5 7.5, 37 7.5, 37 9.5 C37 12, 32 16, 32 16 Z" fill="#ef4444" opacity="0.85"/>
</svg>
